<svg width="31.96" height="39.266" viewBox="0 0 31.96 39.266" fill="none" xmlns="http://www.w3.org/2000/svg">
  <path d="M23.8012 0C23.9767 2.541 23.148 4.58701 21.9255 6.08775C20.127 8.295 17.4765 9.32401 15.9135 9.01801C15.6195 7.25475 16.3485 5.004 17.8313 3.18974C19.2278 1.48125 21.2925 0.160507 23.8012 0C23.8012 0 23.8012 0 23.8012 0ZM16.2495 11.2838C18.033 11.2838 19.9642 9.47626 23.1442 9.47626C24.5775 9.47626 28.6852 9.90974 30.9502 13.3927C30.0502 14.0445 26.7263 16.137 26.7263 20.8987C26.7263 26.5095 31.2705 28.4513 31.9597 28.8068C31.7115 29.7338 30.513 32.949 28.4925 35.4667C27.867 36.246 25.9883 39.237 23.1832 39.237C20.6355 39.237 19.6665 37.6605 16.7272 37.6605C13.3792 37.6605 13.2188 39.2655 9.96225 39.2655C9.27824 39.2655 8.27475 38.9565 7.47975 38.2567C4.65601 35.7705 0 29.3445 0 21.33C0 13.4108 5.25224 9.60899 9.858 9.60899C12.7545 9.60825 14.4068 11.2838 16.2495 11.2838C16.2495 11.2838 16.2495 11.2838 16.2495 11.2838Z" fill="#FFFFFF" />
</svg>