<svg width="58.037" height="56.396" viewBox="0 0 58.037 56.396" fill="none" xmlns="http://www.w3.org/2000/svg">
  <g>
    <path d="M47.8937 18.896L45.9459 18.896L45.9459 18.7985L24.182 18.7985L24.182 28.1978C24.182 28.1978 37.8485 28.1978 37.8485 28.1978C35.8547 33.6693 30.4972 37.597 24.182 37.597C16.1693 37.597 9.67281 31.2842 9.67281 23.4981C9.67281 15.712 16.1693 9.39925 24.182 9.39925C27.8807 9.39925 31.2456 10.7551 33.8077 12.9698C33.8077 12.9698 40.6476 6.32335 40.6476 6.32335C36.3287 2.41208 30.5516 0 24.182 0C10.8275 0 0 10.5213 0 23.4981C0 36.475 10.8275 46.9963 24.182 46.9963C37.5365 46.9963 48.3641 36.475 48.3641 23.4981C48.3641 21.9226 48.1972 20.3846 47.8937 18.896C47.8937 18.896 47.8937 18.896 47.8937 18.896Z" fill="#FFC107" transform="translate(4.836 4.7)" />
    <path d="M0 12.5609C0 12.5609 7.94501 18.2228 7.94501 18.2228C10.0948 13.0509 15.3012 9.39925 21.3938 9.39925C25.0925 9.39925 28.4574 10.7551 31.0195 12.9698C31.0195 12.9698 37.8594 6.32335 37.8594 6.32335C33.5405 2.41208 27.7634 0 21.3938 0C12.1055 0 4.05049 5.09557 0 12.5609C0 12.5609 0 12.5609 0 12.5609Z" fill="#FF3D00" transform="translate(7.625 4.7)" />
    <path d="M21.5281 18.7351C27.7743 18.7351 33.4498 16.4123 37.7409 12.6349C37.7409 12.6349 30.2566 6.48079 30.2566 6.48079C27.8287 8.26782 24.8108 9.33581 21.5281 9.33581C15.2383 9.33581 9.89771 5.43864 7.88576 0C7.88576 0 2.86102e-06 5.90391 2.86102e-06 5.90391C4.00213 13.5138 12.1297 18.7351 21.5281 18.7351C21.5281 18.7351 21.5281 18.7351 21.5281 18.7351Z" fill="#4CAF50" transform="translate(7.49 32.961)" />
    <path d="M23.7117 0.097517L21.7638 0.097517L21.7638 0L0 0L0 9.39926C0 9.39926 13.6665 9.39926 13.6665 9.39926C12.7089 12.0275 10.969 14.2939 8.72488 15.9447C8.72609 15.9435 8.72729 15.9435 8.7285 15.9423C8.7285 15.9423 16.2128 22.0965 16.2128 22.0965C15.6833 22.5641 24.182 16.4487 24.182 4.69963C24.182 3.12408 24.0152 1.58612 23.7117 0.097517C23.7117 0.097517 23.7117 0.097517 23.7117 0.097517Z" fill="#1976D2" transform="translate(29.018 23.498)" />
  </g>
</svg>