 <svg width="28" height="28" viewBox="0 0 28 28" fill="none" xmlns="http://www.w3.org/2000/svg">
                                <g>
                                    <g fill="#FFFFFF" fill-rule="evenodd">
                                        <path d="M0 14C0 6.26801 6.26801 0 14 0C21.732 0 28 6.26801 28 14C28 21.732 21.732 28 14 28C6.26801 28 0 21.732 0 14Z" />
                                        <path d="M14 0C6.26801 0 0 6.26801 0 14C0 21.732 6.26801 28 14 28C21.732 28 28 21.732 28 14C28 6.26801 21.732 0 14 0ZM4.80761 23.1924Q1 19.3848 1 14Q1 8.61523 4.80761 4.80761Q8.61522 1 14 1Q19.3848 1 23.1924 4.80761Q27 8.61522 27 14Q27 19.3848 23.1924 23.1924Q19.3848 27 14 27Q8.61522 27 4.80761 23.1924Z" fill="#000000" fill-rule="evenodd" fill-opacity="0.2" />
                                    </g>
                                    <g transform="translate(7.227 7.227)">
                                        <g transform="matrix(1 0 0 1 -0 0)">
                                            <path d="M6.77419 0C4.93548 0 4.70387 0.00774191 3.98129 0.0406451C3.41905 0.0518283 2.86277 0.158284 2.33613 0.355484C1.88435 0.525699 1.47516 0.79244 1.1371 1.1371C0.792129 1.47528 0.525159 1.88471 0.354839 2.33677C0.157639 2.86342 0.0511832 3.41969 0.04 3.98194C0.00774196 4.70387 0 4.93548 0 6.77419C0 8.6129 0.00774191 8.84452 0.0406451 9.5671C0.0518283 10.1293 0.158284 10.6856 0.355484 11.2123C0.525616 11.6643 0.792362 12.0737 1.1371 12.4119C1.47535 12.7567 1.88477 13.0234 2.33677 13.1935C2.86342 13.3907 3.41969 13.4972 3.98194 13.5084C4.70452 13.5406 4.93516 13.549 6.77484 13.549C8.61452 13.549 8.84516 13.5413 9.56774 13.5084C10.13 13.4972 10.6863 13.3907 11.2129 13.1935C11.6628 13.0192 12.0713 12.7528 12.4123 12.4116C12.7534 12.0703 13.0195 11.6616 13.1936 11.2116C13.3907 10.685 13.4972 10.1287 13.5084 9.56645C13.5406 8.84451 13.5484 8.6129 13.5484 6.77419C13.5484 4.93548 13.5406 4.70387 13.5077 3.98129C13.4966 3.41905 13.3901 2.86277 13.1929 2.33613C13.0228 1.88412 12.756 1.4747 12.4113 1.13645C12.073 0.791716 11.6636 0.52497 11.2116 0.354839C10.685 0.157639 10.1287 0.0511832 9.56645 0.04C8.84452 0.00774196 8.6129 0 6.77419 0L6.77419 0ZM6.77419 1.22064C8.5829 1.22064 8.7971 1.22742 9.51161 1.26C9.94122 1.26526 10.3667 1.34414 10.7697 1.49323C11.0619 1.60592 11.3273 1.77855 11.5487 2C11.7702 2.22145 11.9428 2.48683 12.0555 2.77903C12.2046 3.18197 12.2835 3.60749 12.2887 4.0371C12.321 4.75161 12.3281 4.96581 12.3281 6.77452C12.3281 8.58322 12.3213 8.79742 12.2887 9.51193C12.2835 9.94154 12.2046 10.3671 12.0555 10.77C11.9428 11.0622 11.7702 11.3276 11.5487 11.549C11.3273 11.7705 11.0619 11.9431 10.7697 12.0558C10.3667 12.2049 9.94122 12.2838 9.51161 12.289C8.79742 12.3213 8.58323 12.3284 6.77419 12.3284C4.96516 12.3284 4.75097 12.3216 4.03677 12.289C3.60717 12.2838 3.18165 12.2049 2.77871 12.0558C2.4865 11.9431 2.22113 11.7705 1.99968 11.549C1.77822 11.3276 1.60559 11.0622 1.4929 10.77C1.34382 10.3671 1.26493 9.94154 1.25968 9.51193C1.22742 8.79742 1.22032 8.58322 1.22032 6.77452C1.22032 4.96581 1.2271 4.75161 1.25968 4.0371C1.26493 3.60749 1.34382 3.18197 1.4929 2.77903C1.60559 2.48683 1.77822 2.22145 1.99968 2C2.22113 1.77855 2.4865 1.60592 2.77871 1.49323C3.18165 1.34414 3.60717 1.26526 4.03677 1.26C4.75129 1.22774 4.96548 1.22064 6.77419 1.22064L6.77419 1.22064Z" fill="#000000" fill-rule="evenodd" />
                                            <path d="M3.47871 0C2.79069 0 2.11811 0.204023 1.54604 0.586268C0.973973 0.968514 0.528098 1.51181 0.264803 2.14746C0.00150728 2.78312 -0.0673828 3.48257 0.066844 4.15737C0.201071 4.83218 0.532386 5.45202 1.01889 5.93853C1.5054 6.42503 2.12525 6.75635 2.80005 6.89058C3.47485 7.0248 4.1743 6.95591 4.80996 6.69262C5.44561 6.42932 5.98891 5.98345 6.37115 5.41138C6.7534 4.83931 6.95742 4.16673 6.95742 3.47871C6.95742 2.5561 6.59091 1.67128 5.93853 1.01889C5.28615 0.366506 4.40132 0 3.47871 0L3.47871 0ZM3.47871 5.73677C3.03211 5.73677 2.59553 5.60434 2.2242 5.35622C1.85286 5.1081 1.56344 4.75544 1.39253 4.34283C1.22162 3.93023 1.17691 3.4762 1.26403 3.03818C1.35116 2.60016 1.56622 2.19781 1.88202 1.88202C2.19781 1.56622 2.60016 1.35116 3.03818 1.26403C3.47621 1.17691 3.93023 1.22162 4.34283 1.39253C4.75544 1.56344 5.1081 1.85286 5.35622 2.2242C5.60434 2.59553 5.73678 3.03211 5.73678 3.47871C5.73678 4.07759 5.49887 4.65193 5.0754 5.0754C4.65193 5.49887 4.07759 5.73677 3.47871 5.73677L3.47871 5.73677Z" fill="#000000" fill-rule="evenodd" transform="translate(3.297 3.297)" />
                                            <path d="M0.812903 1.62581C1.26186 1.62581 1.62581 1.26186 1.62581 0.812903C1.62581 0.363949 1.26186 0 0.812903 0C0.363949 0 0 0.363949 0 0.812903C0 1.26186 0.363949 1.62581 0.812903 1.62581L0.812903 1.62581Z" fill="#000000" fill-rule="evenodd" transform="translate(9.578 2.346)" />
                                        </g>
                                    </g>
                                </g>
                            </svg>
