 <svg width="87.383" height="70.798" viewBox="0 0 87.383 70.798" fill="none" xmlns="http://www.w3.org/2000/svg">
                                <defs>
                                    <filter color-interpolation-filters="sRGB" x="-44.614" y="-28.03" width="46.614" height="30.03" id="filter_1">
                                        <feFlood flood-opacity="0" result="BackgroundImageFix_1" />
                                        <feColorMatrix type="matrix" values="0 0 0 0 0 0 0 0 0 0 0 0 0 0 0 0 0 0 1 0" in="SourceAlpha" />
                                        <feOffset dx="0" dy="0.45" />
                                        <feGaussianBlur stdDeviation="2.24" />
                                        <feColorMatrix type="matrix" values="0 0 0 0 0.718 0 0 0 0 0.718 0 0 0 0 0.718 0 0 0 0.078 0" />
                                        <feBlend mode="normal" in2="BackgroundImageFix_1" result="Shadow_2" />
                                        <feColorMatrix type="matrix" values="0 0 0 0 0 0 0 0 0 0 0 0 0 0 0 0 0 0 1 0" in="SourceAlpha" />
                                        <feOffset dx="0" dy="4.48" />
                                        <feGaussianBlur stdDeviation="4.48" />
                                        <feColorMatrix type="matrix" values="0 0 0 0 0.718 0 0 0 0 0.718 0 0 0 0 0.718 0 0 0 0.078 0" />
                                        <feBlend mode="normal" in2="Shadow_2" result="Shadow_3" />
                                        <feBlend mode="normal" in="SourceGraphic" in2="Shadow_3" result="Shape_4" />
                                    </filter>
                                </defs>
                                <g transform="translate(20.384 15.454)">
                                    <rect width="46.614" height="30.03" rx="5.379" fill="#FFFFFF" fill-rule="evenodd" filter="url(#filter_1)" />
                                    <path d="M4.99229 1.44499C5.30328 1.05601 5.51432 0.533719 5.45866 0C5.00341 0.0226374 4.44787 0.300344 4.12624 0.689632C3.83745 1.023 3.58184 1.56716 3.64848 2.0785C4.15952 2.12283 4.67008 1.82306 4.99229 1.44499L4.99229 1.44499ZM11.9149 0.633805C13.528 0.633805 14.6512 1.7457 14.6512 3.36454C14.6512 4.98915 13.5049 6.10682 11.8745 6.10682L10.0885 6.10682L10.0885 8.94701L8.79817 8.94701L8.79817 0.633803L11.9149 0.633805L11.9149 0.633805ZM10.0885 5.02371L11.5691 5.02371C12.6926 5.02371 13.332 4.41887 13.332 3.37031C13.332 2.32187 12.6926 1.7227 11.5749 1.7227L10.0885 1.7227L10.0885 5.02371L10.0885 5.02371ZM5.45287 2.17835C5.00146 2.15146 4.59117 2.31311 4.25923 2.4439C4.04543 2.52813 3.86414 2.59956 3.72529 2.59956C3.57218 2.59956 3.38401 2.52519 3.17234 2.44154C2.89377 2.33144 2.57451 2.20527 2.24095 2.21138C1.47693 2.2226 0.768009 2.65458 0.380301 3.34164C-0.417148 4.71609 0.169856 6.75489 0.945333 7.8743C1.32192 8.42811 1.77578 9.0379 2.3738 9.016C2.93883 8.99382 3.1603 8.65013 3.84712 8.65013C4.19844 8.65013 4.4222 8.746 4.63716 8.83811C4.84213 8.92593 5.0391 9.01032 5.33105 9.00491C5.95131 8.99382 6.33909 8.45083 6.71568 7.89648C7.14769 7.26516 7.32455 6.65558 7.33567 6.62211C7.32454 6.61103 6.13962 6.15646 6.12864 4.79343C6.11812 3.72058 6.94946 3.17654 7.08599 3.08719C7.0947 3.08149 7.10058 3.07764 7.10324 3.07562C6.57158 2.28929 5.74087 2.20063 5.45287 2.17835L5.45287 2.17835ZM14.9883 7.22448C14.9883 6.16437 15.8006 5.51341 17.241 5.43274L18.9001 5.33484L18.9001 4.86823C18.9001 4.19416 18.4449 3.7909 17.6846 3.7909C16.9643 3.7909 16.5149 4.13649 16.4056 4.6781L15.2304 4.6781C15.2995 3.58343 16.2327 2.7769 17.7306 2.7769C19.1997 2.7769 20.1386 3.55465 20.1386 4.77022L20.1386 8.94699L18.9461 8.94699L18.9461 7.95033L18.9174 7.95033C18.566 8.6244 17.7997 9.05067 17.0048 9.05067C15.818 9.05067 14.9883 8.31326 14.9883 7.22448L14.9883 7.22448ZM21.2645 11.1766L21.2645 10.1683C21.3566 10.1913 21.5639 10.1913 21.6677 10.1913C22.2438 10.1913 22.5549 9.94943 22.7449 9.32726C22.7449 9.3157 22.8545 8.95855 22.8545 8.95277L20.6654 2.88636L22.0133 2.88636L23.5459 7.81787L23.5688 7.81787L25.1014 2.88636L26.4149 2.88636L24.1448 9.2638C23.6266 10.733 23.0274 11.2053 21.7715 11.2053C21.6677 11.2053 21.3566 11.1938 21.2645 11.1766L21.2645 11.1766ZM18.9001 6.6772L18.9001 6.19904L17.4079 6.29116C16.6647 6.34306 16.2442 6.67142 16.2442 7.18992C16.2442 7.71987 16.6821 8.06557 17.3504 8.06557C18.2202 8.06557 18.9001 7.46639 18.9001 6.6772L18.9001 6.6772Z" fill="#000008" fill-rule="evenodd" transform="translate(10.085 9.637)" />
                                    <path d="M45.1976 1.41673Q43.5568 -0.224107 41.2357 -0.224107L5.37857 -0.224107Q3.05753 -0.224107 1.41673 1.41673Q-0.224091 3.05762 -0.224106 5.37857L-0.224106 24.6518Q-0.224091 26.9727 1.41673 28.6136Q3.05753 30.2544 5.37857 30.2545L41.2357 30.2545Q43.5568 30.2544 45.1976 28.6136Q46.8383 26.9727 46.8384 24.6518L46.8384 5.37857Q46.8383 3.05762 45.1976 1.41673ZM46.6143 5.37857C46.6143 2.40766 44.2066 0 41.2357 0L5.37857 0C2.40767 0 0 2.40766 0 5.37857L0 24.6518C0 27.6227 2.40767 30.0304 5.37857 30.0304L41.2357 30.0304C44.2066 30.0304 46.6143 27.6227 46.6143 24.6518L46.6143 5.37857Z" fill="#D6DCE5" fill-rule="evenodd" />
                                </g>
                            </svg>