 <svg width="87.383" height="70.798" viewBox="0 0 87.383 70.798" fill="none" xmlns="http://www.w3.org/2000/svg">
                                <defs>
                                    <filter color-interpolation-filters="sRGB" x="-44.614" y="-28.03" width="46.614" height="30.03" id="filter_1">
                                        <feFlood flood-opacity="0" result="BackgroundImageFix_1" />
                                        <feColorMatrix type="matrix" values="0 0 0 0 0 0 0 0 0 0 0 0 0 0 0 0 0 0 1 0" in="SourceAlpha" />
                                        <feOffset dx="0" dy="0.45" />
                                        <feGaussianBlur stdDeviation="2.24" />
                                        <feColorMatrix type="matrix" values="0 0 0 0 0.718 0 0 0 0 0.718 0 0 0 0 0.718 0 0 0 0.078 0" />
                                        <feBlend mode="normal" in2="BackgroundImageFix_1" result="Shadow_2" />
                                        <feColorMatrix type="matrix" values="0 0 0 0 0 0 0 0 0 0 0 0 0 0 0 0 0 0 1 0" in="SourceAlpha" />
                                        <feOffset dx="0" dy="4.48" />
                                        <feGaussianBlur stdDeviation="4.48" />
                                        <feColorMatrix type="matrix" values="0 0 0 0 0.718 0 0 0 0 0.718 0 0 0 0 0.718 0 0 0 0.078 0" />
                                        <feBlend mode="normal" in2="Shadow_2" result="Shadow_3" />
                                        <feBlend mode="normal" in="SourceGraphic" in2="Shadow_3" result="Shape_4" />
                                    </filter>
                                </defs>
                                <g transform="translate(20.384 15.454)">
                                    <rect width="46.614" height="30.03" rx="5.379" fill="#FFFFFF" fill-rule="evenodd" filter="url(#filter_1)" />
                                    <path d="M4.67818 1.85117C5.36786 1.85117 5.98546 2.08871 6.4731 2.55287L7.80823 1.21882C6.99732 0.463613 5.94014 0 4.67818 0C2.8505 0 1.26742 1.04844 0.497464 2.57634C0.179109 3.20814 0 3.9213 0 4.67706C0 5.43282 0.179655 6.14598 0.497464 6.77778L0.497672 6.77762C1.26768 8.30535 2.85009 9.35365 4.67818 9.35365C5.94149 9.35365 7.00285 8.93828 7.77548 8.22323L6.26888 8.22323L6.26888 7.05452L6.26942 7.05416L7.77601 8.22274C8.65539 7.40857 9.1592 6.20522 9.1592 4.78355C9.1592 4.44172 9.12862 4.11462 9.07183 3.80009L4.6771 3.80009L4.6771 5.60211L7.20812 5.60265C7.10545 6.20224 6.77508 6.71336 6.26888 7.0541L6.26888 7.05452C5.84958 7.33716 5.30971 7.50248 4.67818 7.50248C3.45773 7.50248 2.42239 6.6801 2.05161 5.57158L2.0514 5.57158C1.95704 5.28886 1.90522 4.98814 1.90522 4.67706C1.90522 4.3658 1.9571 4.06492 2.05156 3.78206C2.42234 2.67354 3.45773 1.85117 4.67818 1.85117L4.67818 1.85117ZM0.497464 2.57634L2.05156 3.78206L2.05156 2.57634L0.497464 2.57634L0.497464 2.57634ZM13.3296 8.75346L12.2811 8.75346L12.2811 0.595211L15.0606 0.595211C15.765 0.595211 16.3657 0.830021 16.8572 1.29964C17.3595 1.76926 17.6107 2.34263 17.6107 3.01975C17.6107 3.71326 17.3595 4.28663 16.8572 4.75079C16.3712 5.21494 15.7705 5.44429 15.0606 5.44429L13.3296 5.44429L13.3296 8.75346L13.3296 8.75346ZM13.3296 1.60544L13.3296 4.44499L15.0824 4.44499C15.4974 4.44499 15.8469 4.30301 16.12 4.02452C16.3985 3.74602 16.5404 3.40746 16.5404 3.02521C16.5404 2.64842 16.3985 2.31533 16.12 2.03683C15.8469 1.74741 15.5029 1.60544 15.0824 1.60544L13.3296 1.60544L13.3296 1.60544ZM2.05156 5.57206L2.0514 5.57158L0.497511 5.57158L0.497511 6.7773L0.497672 6.77762L2.05156 5.57206L2.05156 5.57206ZM20.3519 2.98699C21.1273 2.98699 21.7389 3.19449 22.1866 3.6095C22.6344 4.02452 22.8583 4.59243 22.8583 5.31324L22.8583 8.75346L21.859 8.75346L21.859 7.97804L21.8153 7.97804C21.3839 8.61694 20.8051 8.93366 20.0843 8.93366C19.4672 8.93366 18.9539 8.75346 18.5389 8.3876C18.1239 8.02173 17.9164 7.56849 17.9164 7.02243C17.9164 6.44359 18.1348 5.9849 18.5717 5.64634C19.0085 5.30231 19.5928 5.13303 20.3191 5.13303C20.9416 5.13303 21.4549 5.24771 21.8535 5.47706L21.8535 5.23678C21.8535 4.87092 21.7116 4.56512 21.4221 4.30847C21.1327 4.05182 20.7942 3.92622 20.4065 3.92622C19.8222 3.92622 19.358 4.17195 19.0195 4.66888L18.0966 4.09004C18.6045 3.35285 19.358 2.98699 20.3519 2.98699L20.3519 2.98699ZM28.5593 3.16724L25.0645 11.2054L23.9832 11.2054L25.2829 8.39311L22.9785 3.16724L24.1198 3.16724L25.7798 7.17538L25.8016 7.17538L27.418 3.16724L28.5593 3.16724L28.5593 3.16724ZM18.9976 7.03881C18.9976 7.31184 19.1123 7.54119 19.3471 7.72139C19.5764 7.90159 19.8495 7.99443 20.1607 7.99443C20.6031 7.99443 20.9962 7.83061 21.3402 7.50297C21.6843 7.17532 21.859 6.79308 21.859 6.35076C21.5314 6.09411 21.0781 5.96306 20.4938 5.96306C20.0679 5.96306 19.713 6.06681 19.429 6.26885C19.1396 6.48182 18.9976 6.73847 18.9976 7.03881L18.9976 7.03881Z" fill="#E94235" fill-rule="evenodd" transform="translate(8.964 9.861)" />
                                    <path d="M45.1976 1.41673Q43.5565 -0.224107 41.2357 -0.224107L5.37857 -0.224107Q3.0575 -0.224107 1.41673 1.41673Q-0.223999 3.05762 -0.224106 5.37857L-0.224106 24.6518Q-0.223999 26.9727 1.41673 28.6136Q3.05774 30.2544 5.37857 30.2545L41.2357 30.2545Q43.5568 30.2544 45.1976 28.6136Q46.8383 26.9729 46.8384 24.6518L46.8384 5.37857Q46.8385 3.05746 45.1976 1.41673ZM46.6143 5.37857C46.6143 2.40766 44.2066 0 41.2357 0L5.37857 0C2.40767 0 0 2.40766 0 5.37857L0 24.6518C0 27.6227 2.40767 30.0304 5.37857 30.0304L41.2357 30.0304C44.2066 30.0304 46.6143 27.6227 46.6143 24.6518L46.6143 5.37857Z" fill="#D6DCE5" fill-rule="evenodd" />
                                </g>
                            </svg>
