 <svg width="87.383" height="70.798" viewBox="0 0 87.383 70.798" fill="none" xmlns="http://www.w3.org/2000/svg">
                                <defs>
                                    <filter color-interpolation-filters="sRGB" x="-44.614" y="-28.03" width="46.614" height="30.03" id="filter_1">
                                        <feFlood flood-opacity="0" result="BackgroundImageFix_1" />
                                        <feColorMatrix type="matrix" values="0 0 0 0 0 0 0 0 0 0 0 0 0 0 0 0 0 0 1 0" in="SourceAlpha" />
                                        <feOffset dx="0" dy="0.45" />
                                        <feGaussianBlur stdDeviation="2.24" />
                                        <feColorMatrix type="matrix" values="0 0 0 0 0.718 0 0 0 0 0.718 0 0 0 0 0.718 0 0 0 0.078 0" />
                                        <feBlend mode="normal" in2="BackgroundImageFix_1" result="Shadow_2" />
                                        <feColorMatrix type="matrix" values="0 0 0 0 0 0 0 0 0 0 0 0 0 0 0 0 0 0 1 0" in="SourceAlpha" />
                                        <feOffset dx="0" dy="4.48" />
                                        <feGaussianBlur stdDeviation="4.48" />
                                        <feColorMatrix type="matrix" values="0 0 0 0 0.718 0 0 0 0 0.718 0 0 0 0 0.718 0 0 0 0.078 0" />
                                        <feBlend mode="normal" in2="Shadow_2" result="Shadow_3" />
                                        <feBlend mode="normal" in="SourceGraphic" in2="Shadow_3" result="Shape_4" />
                                    </filter>
                                </defs>
                                <g transform="translate(20.384 15.454)">
                                    <rect width="46.614" height="30.03" rx="5.379" fill="#FFFFFF" fill-rule="evenodd" filter="url(#filter_1)" />
                                    <path d="M9.69511 7.84375C9.69403 6.65594 9.96319 5.48346 10.4822 4.41506C11.0013 3.34665 11.7566 2.41034 12.691 1.677C13.6245 2.41108 14.3792 3.34755 14.8982 4.41578C15.4171 5.48401 15.6868 6.65613 15.6868 7.84375C15.6868 9.03137 15.4171 10.2035 14.8982 11.2717C14.3792 12.34 13.6245 13.2764 12.691 14.0105C11.7566 13.2772 11.0013 12.3408 10.4822 11.2724C9.9632 10.204 9.69404 9.03155 9.69511 7.84375L9.69511 7.84375ZM8.68081 15.6427C10.1442 15.4856 11.5338 14.92 12.691 14.0105C13.848 14.92 15.2377 15.4856 16.701 15.6427C18.1644 15.7998 19.6424 15.5419 20.9662 14.8987C22.2899 14.2554 23.406 13.2527 24.1868 12.0052C24.9676 10.7576 25.3816 9.31551 25.3815 7.84375C25.3816 6.37199 24.9676 4.92991 24.1868 3.68234C23.406 2.43477 22.2899 1.43206 20.9662 0.788811C19.6424 0.145561 18.1644 -0.112267 16.701 0.0447955C15.2377 0.201859 13.848 0.767477 12.691 1.677C11.5338 0.767478 10.1442 0.201863 8.68081 0.0447979C7.21744 -0.112267 5.7394 0.14555 4.41563 0.788793C3.09185 1.43204 1.97576 2.43475 1.19492 3.68232C0.414079 4.92988 0 6.37197 0 7.84375C0 9.31553 0.414079 10.7576 1.19492 12.0052C1.97576 13.2527 3.09185 14.2555 4.41563 14.8987C5.7394 15.542 7.21744 15.7998 8.68081 15.6427L8.68081 15.6427ZM12.691 1.677L16.1226 1.677L16.1226 14.0105L9.25929 14.0105L9.25929 1.677L12.691 1.677L12.691 1.677ZM25.7947 13.3998L25.7947 12.3998L25.5622 12.3998L25.2948 13.0877L25.0275 12.3998L24.7947 12.3998L24.7947 13.3998L24.9591 13.3998L24.9591 12.6452L25.2097 13.2957L25.38 13.2957L25.6306 12.6436L25.6306 13.3998L25.7947 13.3998L25.7947 13.3998ZM25.0831 13.4002L25.0831 12.5696L25.4757 12.5696L25.4757 12.4002L24.4757 12.4002L24.4757 12.5696L24.8687 12.5696L24.8687 13.4002L25.0831 13.4002L25.0831 13.4002Z" fill="#F79E1B" fill-rule="evenodd" transform="translate(10.533 7.171)" />
                                    <path d="M45.1976 1.41673Q43.5567 -0.224107 41.2357 -0.224107L5.37857 -0.224107Q3.05759 -0.224107 1.41673 1.41673Q-0.224087 3.05758 -0.224106 5.37857L-0.224106 24.6518Q-0.224148 26.9728 1.41673 28.6136Q3.05753 30.2544 5.37857 30.2545L41.2357 30.2545Q43.5567 30.2544 45.1976 28.6136Q46.8384 26.9728 46.8384 24.6518L46.8384 5.37857Q46.8384 3.05753 45.1976 1.41673ZM46.6143 5.37857C46.6143 2.40766 44.2066 0 41.2357 0L5.37857 0C2.40767 0 0 2.40766 0 5.37857L0 24.6518C0 27.6227 2.40767 30.0304 5.37857 30.0304L41.2357 30.0304C44.2066 30.0304 46.6143 27.6227 46.6143 24.6518L46.6143 5.37857Z" fill="#D6DCE5" fill-rule="evenodd" />
                                </g>
                            </svg>