 <svg width="87.383" height="70.798" viewBox="0 0 87.383 70.798" fill="none" xmlns="http://www.w3.org/2000/svg">
                                <defs>
                                    <filter color-interpolation-filters="sRGB" x="-44.614" y="-28.03" width="46.614" height="30.03" id="filter_1">
                                        <feFlood flood-opacity="0" result="BackgroundImageFix_1" />
                                        <feColorMatrix type="matrix" values="0 0 0 0 0 0 0 0 0 0 0 0 0 0 0 0 0 0 1 0" in="SourceAlpha" />
                                        <feOffset dx="0" dy="0.45" />
                                        <feGaussianBlur stdDeviation="2.24" />
                                        <feColorMatrix type="matrix" values="0 0 0 0 0.718 0 0 0 0 0.718 0 0 0 0 0.718 0 0 0 0.078 0" />
                                        <feBlend mode="normal" in2="BackgroundImageFix_1" result="Shadow_2" />
                                        <feColorMatrix type="matrix" values="0 0 0 0 0 0 0 0 0 0 0 0 0 0 0 0 0 0 1 0" in="SourceAlpha" />
                                        <feOffset dx="0" dy="4.48" />
                                        <feGaussianBlur stdDeviation="4.48" />
                                        <feColorMatrix type="matrix" values="0 0 0 0 0.718 0 0 0 0 0.718 0 0 0 0 0.718 0 0 0 0.078 0" />
                                        <feBlend mode="normal" in2="Shadow_2" result="Shadow_3" />
                                        <feBlend mode="normal" in="SourceGraphic" in2="Shadow_3" result="Shape_4" />
                                    </filter>
                                </defs>
                                <g transform="translate(20.384 15.454)">
                                    <rect width="46.614" height="30.03" rx="5.379" fill="#FFFFFF" fill-rule="evenodd" filter="url(#filter_1)" />
                                    <path d="M23.2444 7.03101C23.2512 5.42603 21.9219 4.72847 20.8584 4.17039C20.1444 3.79572 19.5502 3.48391 19.5605 3.00258C19.5682 2.63747 19.916 2.25017 20.6755 2.15077C21.0528 2.10155 22.0902 2.06391 23.2682 2.60595L23.7295 0.450677C23.0968 0.220996 22.2826 0 21.2699 0C18.6714 0 16.8423 1.38163 16.8269 3.35997C16.8104 4.82298 18.1326 5.63941 19.1288 6.12579C20.153 6.62408 20.4972 6.94319 20.4927 7.38872C20.486 8.07101 19.6757 8.37146 18.9197 8.38336C17.6364 8.40366 16.876 8.04847 16.2732 7.76695C16.255 7.75843 16.2369 7.74997 16.2189 7.7416L15.7425 9.96861C16.3566 10.2507 17.4905 10.4958 18.6669 10.5084C21.4285 10.5084 23.2354 9.14382 23.2444 7.03101L23.2444 7.03101ZM12.3542 0.185933L8.09448 10.3495L5.31483 10.3495L3.21875 2.23826C3.09136 1.73869 2.9807 1.55598 2.59372 1.34528C1.96226 1.00268 0.918402 0.68068 0 0.481237L0.0627279 0.185933L4.53636 0.185933C5.10638 0.185933 5.61946 0.565517 5.74878 1.22207L6.856 7.10371L9.59191 0.185933L12.3542 0.185933L12.3542 0.185933ZM16.1111 0.185933L13.9369 10.3495L11.3078 10.3495L13.4823 0.185933L16.1111 0.185933L16.1111 0.185933ZM30.1062 10.3495L32.5381 10.3495L30.416 0.185933L28.1713 0.185933C27.6669 0.185933 27.2413 0.479306 27.0518 0.931592L23.1074 10.3495L25.8684 10.3495L26.4165 8.83179L29.7897 8.83179L30.1062 10.3495L30.1062 10.3495ZM27.1728 6.74857L28.557 2.93181L29.3535 6.74857L27.1728 6.74857L27.1728 6.74857Z" fill="#1434CB" fill-rule="evenodd" transform="translate(6.911 9.935)" />
                                    <path d="M45.1976 1.41673Q43.5567 -0.224107 41.2357 -0.224107L5.37857 -0.224107Q3.05756 -0.224107 1.41673 1.41673Q-0.224107 3.05756 -0.224107 5.37857L-0.224107 24.6518Q-0.224107 26.9728 1.41673 28.6136Q3.05756 30.2544 5.37857 30.2545L41.2357 30.2545Q43.5567 30.2544 45.1976 28.6136Q46.8384 26.9728 46.8384 24.6518L46.8384 5.37857Q46.8384 3.05758 45.1976 1.41673ZM46.6143 5.37857C46.6143 2.40766 44.2066 0 41.2357 0L5.37857 0C2.40766 0 0 2.40766 0 5.37857L0 24.6518C0 27.6227 2.40766 30.0304 5.37857 30.0304L41.2357 30.0304C44.2066 30.0304 46.6143 27.6227 46.6143 24.6518L46.6143 5.37857Z" fill="#D6DCE5" fill-rule="evenodd" />
                                </g>
                            </svg>