 <svg width="28" height="28" viewBox="0 0 28 28" fill="none" xmlns="http://www.w3.org/2000/svg">
                                <g>
                                    <path d="M0 14C0 6.26801 6.26801 0 14 0C21.732 0 28 6.26801 28 14C28 21.732 21.732 28 14 28C6.26801 28 0 21.732 0 14Z" fill="#000000" fill-rule="evenodd" />
                                    <g transform="translate(10.84 8.129)">
                                        <g transform="matrix(1 0 0 1 0 0)">
                                            <path d="M1.86888 12.1749L1.86888 6.62136L0 6.62136L0 4.45703L1.86888 4.45703L1.86888 2.8609C1.86888 1.00861 3.0002 0 4.65258 0C5.44408 0 6.12434 0.0589293 6.32258 0.0852686L6.32258 2.02102L5.17657 2.02154C4.27792 2.02154 4.10392 2.44857 4.10392 3.0752L4.10392 4.45703L6.24712 4.45703L5.96807 6.62136L4.10391 6.62136L4.10391 12.1749L1.86888 12.1749L1.86888 12.1749Z" fill="#FFFFFF" fill-rule="evenodd" />
                                        </g>
                                    </g>
                                </g>
                            </svg>