 <svg width="194" height="32" viewBox="0 0 194 32" fill="none" xmlns="http://www.w3.org/2000/svg">
            <g>
                <g transform="translate(0 0.402)">
                    <path d="M120.367 0L140.81 0.112772C147.394 1.6545 151.582 5.67646 152.881 12.6926L152.826 18.1647C151.626 24.4164 147.693 28.7297 140.756 30.9133L120.258 30.9708L120.255 30.3085C123.372 30.0731 123.621 29.7174 123.629 27.8676L123.629 2.93284C123.594 1.56519 123.32 0.713721 120.312 0.61987L120.367 0L120.367 0ZM38.4936 0.32318L41.4258 3.63067L41.4258 27.8328L39.2526 31.0011L52.5613 31.02L50.1624 28.1061L49.9133 19.39L49.9666 19.39L63.7165 31.1184L75.1274 31.0253L64.7129 22.0171L56.0187 22.0171L52.9543 19.4067L62.7465 19.4597C66.6363 18.1647 70.6342 15.4036 70.8271 9.82179C70.7665 4.41326 67.4639 0.94305 63.6289 0.253549L38.4936 0.32318L38.4936 0.32318ZM86.1132 0.288364L97.5891 0.288364L112.528 28.0084C113.174 30.1488 115.108 29.8847 116.398 30.8232L101.935 30.8232L104.108 30.1435L103.972 28.0796L100.237 22.0988L87.5391 22.17L84.8232 27.9395C84.793 28.1582 84.6949 28.3593 84.5968 28.5605C84.4005 28.9629 84.2042 29.3654 84.5514 29.9089L85.5705 30.8936L79.3234 30.7528L82.04 29.9089L92.2924 8.30958L92.2924 6.83143L87.9606 1.05279L86.1132 0.288364L86.1132 0.288364ZM163.715 0.348913L175.19 0.348913L190.129 28.069C190.776 30.2094 192.709 29.9452 194 30.8837L179.536 30.8837L181.709 30.2026L181.573 28.1386L177.839 22.1594L165.141 22.2305L162.425 27.9986C162.394 28.2176 162.296 28.419 162.198 28.6202C162.002 29.0232 161.805 29.4258 162.152 29.9694L163.171 30.9541L156.925 30.8134L159.642 29.9694L169.894 8.37013L169.894 6.89123L165.562 1.11334L163.715 0.348913L163.715 0.348913ZM0 0.499529L2.93217 3.80626L2.93217 28.0084L0.758974 31.1751L14.0684 31.1956L11.6695 28.2816L11.4204 19.5656L24.2536 19.6353C28.1434 18.3403 32.1421 15.5792 32.3342 9.99739C32.2728 4.5881 28.9703 1.11864 25.136 0.428384L0 0.499529L0 0.499529ZM49.4378 1.87096L49.4378 17.4192L59.284 17.4903C61.5251 15.6837 63.2227 14.3001 63.1548 9.96181C63.1227 6.42576 62.3761 3.34079 59.0802 1.87096L49.4378 1.87096L49.4378 1.87096ZM10.9449 2.04731L10.9449 17.5955L20.7911 17.6667C23.0315 15.86 24.7298 14.4765 24.6619 10.1389C24.6298 6.6021 23.8832 3.51789 20.5873 2.04807L10.9449 2.04731L10.9449 2.04731ZM131.988 2.13359L131.968 29.1112C132.556 29.1132 133.128 29.1268 133.676 29.1398C135.637 29.1865 137.292 29.2258 138.325 28.6987C141.319 27.331 142.71 25.2307 142.837 23.2576L142.765 7.32793C142.766 4.77958 140 2.98052 138.404 2.51202C137.262 2.08894 134.983 2.07153 131.988 2.13359L131.988 2.13359ZM88.3419 20.1953L93.616 10.2101L99.1071 20.1393L88.3419 20.1953L88.3419 20.1953ZM165.944 20.2566L171.218 10.2714L176.709 20.1991L165.944 20.2566L165.944 20.2566Z" fill="#FFFFFF" fill-rule="evenodd" />
                    <path d="M1.13566 1.10328L1.13421 0.502123L0 0.505892L0.752506 1.50212L1.13566 1.10328L1.13566 1.10328ZM4.06783 4.98118L5.06783 4.98118L5.06783 4.40916L4.81604 3.98118L4.06783 4.98118L4.06783 4.98118ZM4.06783 28.5231L4.89235 29.5231L5.06783 29.071L5.06783 28.5231L4.06783 28.5231L4.06783 28.5231ZM1.92315 31.7614L1.48852 31.4001L0.923146 32.3982L1.92234 32.4001L1.92315 31.7614L1.92315 31.7614ZM15.2041 31.7727L15.2033 32.3829L16.2904 32.3848L15.5995 31.3848L15.2041 31.7727L15.2041 31.7727ZM13.2933 28.7963L12.2933 28.8414L12.303 29.3803L12.5208 29.7963L13.2933 28.7963L13.2933 28.7963ZM13.0238 20.5376L13.0291 19.5707L12.0291 19.5654L12.0576 20.5654L13.0238 20.5376L13.0238 20.5376ZM25.4035 20.15L25.3865 21.149L25.8995 21.15L26.3865 21.0979L25.4035 20.15L25.4035 20.15ZM33.4699 10.7543L34.4691 11.5063L34.4699 11.0067L34.4695 10.5063L33.4699 10.7543L33.4699 10.7543ZM26.2864 1.43085L27.2702 0.446916L26.7745 0.430847L26.2702 0.431103L26.2864 1.43085L26.2864 1.43085ZM12.5685 3.04987L12.5685 2.04994L11.5685 2.04987L11.5685 3.04987L12.5685 3.04987L12.5685 3.04987ZM12.5685 18.1102L11.5685 18.1102L11.5685 19.103L12.5612 19.1102L12.5685 18.1102L12.5685 18.1102ZM21.9344 18.1814L21.9231 19.1787L22.4853 19.1814L22.9231 18.9578L21.9344 18.1814L21.9344 18.1814ZM26.2855 10.6536L25.2855 11.2411L25.2857 11.6536L26.2855 10.6536L26.2855 10.6536ZM21.723 3.05065L22.723 2.13736L22.2457 2.05067L21.723 2.05065L21.723 3.05065L21.723 3.05065ZM39.6293 0.926961L39.6279 0.325774L38.4938 0.329463L39.2461 1.32577L39.6293 0.926961L39.6293 0.926961ZM42.5615 4.80564L43.5615 4.80564L43.5615 4.23366L43.3097 3.80564L42.5615 4.80564L42.5615 4.80564ZM42.5615 28.3475L43.3861 29.3475L43.5615 28.8956L43.5615 28.3475L42.5615 28.3475L42.5615 28.3475ZM40.417 31.5874L39.9822 31.2261L39.417 32.2245L40.4162 32.2261L40.417 31.5874L40.417 31.5874ZM53.697 31.5971L53.6963 32.2074L54.7832 32.2092L54.0924 31.2092L53.697 31.5971L53.697 31.5971ZM51.7862 28.6208L50.7862 28.6657L50.7959 29.2047L51.0137 29.6208L51.7862 28.6208L51.7862 28.6208ZM51.5221 20.3647L51.5221 19.3926L50.5221 19.3926L50.5505 20.3926L51.5221 20.3647L51.5221 20.3647ZM51.1023 20.3926L52.1023 19.6318L51.6702 19.3926L51.1023 19.3926L51.1023 20.3926L51.1023 20.3926ZM65.5074 31.6331L64.5199 32.3917L64.952 32.6331L65.5199 32.63L65.5074 31.6331L65.5074 31.6331ZM76.2631 31.5834L76.2756 32.1527L77.2631 31.1527L76.2631 31.5834L76.2631 31.5834ZM65.8486 23.0197L66.8486 22.2634L66.4181 22.0197L65.8486 22.0197L65.8486 23.0197L65.8486 23.0197ZM57.8223 22.5318L56.8223 23.293L57.2547 23.5318L57.8223 23.5318L57.8223 22.5318L57.8223 22.5318ZM54.7495 19.9771L54.7579 19.4093L53.7579 20.4093L54.7495 19.9771L54.7495 19.9771ZM63.8964 19.9744L63.8794 20.9736L64.3924 20.9744L64.8794 20.9223L63.8964 19.9744L63.8964 19.9744ZM71.9628 10.5757L72.962 11.3307L72.9628 10.831L72.9624 10.3307L71.9628 10.5757L71.9628 10.5757ZM64.7784 1.25601L65.7632 0.272037L65.2675 0.256015L64.7632 0.256265L64.7784 1.25601L64.7784 1.25601ZM51.0614 2.87355L51.0614 1.87355L50.0614 1.87355L50.0614 2.87355L51.0614 2.87355L51.0614 2.87355ZM51.0614 17.9339L50.0614 17.9339L50.0614 18.9269L51.0541 18.9339L51.0614 17.9339L51.0614 17.9339ZM60.4273 18.005L60.416 19.0025L60.9779 19.005L61.416 18.7816L60.4273 18.005L60.4273 18.005ZM64.7784 10.4765L63.7784 11.0575L63.7786 11.4765L64.7784 10.4765L64.7784 10.4765ZM60.2159 2.87355L61.2159 1.96026L60.7386 1.87355L60.2159 1.87355L60.2159 2.87355L60.2159 2.87355ZM88.0531 0.810702L88.0531 0.290957L87.0531 1.29096L88.0531 0.810702L88.0531 0.810702ZM98.7248 1.29096L99.7248 0.816556L99.4031 0.290957L98.7248 0.290957L98.7248 1.29096L98.7248 1.29096ZM113.664 29.2802L114.664 28.6709L114.633 28.4671L114.582 28.2802L113.664 29.2802L113.664 29.2802ZM117.534 31.3708L117.534 31.9237L118.534 30.9237L117.534 31.3708L117.534 31.3708ZM103.918 31.3379L102.918 30.8491L103.918 31.85L103.918 31.3379L103.918 31.3379ZM105.244 30.6889L105.529 31.6246L106.244 31.3943L106.195 30.6246L105.244 30.6889L105.244 30.6889ZM105.108 29.323L106.108 29.1988L106.092 28.7255L105.957 28.323L105.108 29.323L105.108 29.323ZM101.377 23.0999L102.37 22.5718L102.023 22.0999L101.37 22.103L101.377 23.0999L101.377 23.0999ZM89.2115 23.1726L89.2054 22.1726L88.5082 22.1761L88.2115 22.7467L89.2115 23.1726L89.2115 23.1726ZM86.4516 29.2361L85.5383 28.2361L85.4726 28.5603L85.4516 28.9151L86.4516 29.2361L86.4516 29.2361ZM86.2556 30.4236L85.2556 31.1722L85.3306 31.3098L85.431 31.4236L86.2556 30.4236L86.2556 30.4236ZM86.7261 31.4584L86.6946 32.04L87.6946 31.04L86.7261 31.4584L86.7261 31.4584ZM81.3071 31.2675L80.3071 30.7785L81.2307 31.7795L81.3071 31.2675L81.3071 31.2675ZM83.1757 30.4236L83.504 31.4236L83.9675 31.2874L84.1757 30.8727L83.1757 30.4236L83.1757 30.4236ZM93.4281 8.82426L94.3314 9.82426L94.4281 9.34965L94.4281 8.82426L93.4281 8.82426L93.4281 8.82426ZM93.4281 8.03897L94.4281 8.03897L94.4281 7.48344L94.2281 7.03897L93.4281 8.03897L93.4281 8.03897ZM89.0963 2.0943L90.0963 1.44517L89.8906 1.20775L89.5741 1.0943L89.0963 2.0943L89.0963 2.0943ZM89.6225 20.7873L89.0927 20.4709L88.6257 21.4709L89.6257 21.4649L89.6225 20.7873L89.6225 20.7873ZM94.8014 10.7248L95.2989 10.4769L94.79 9.64787L94.2989 10.4856L94.8014 10.7248L94.8014 10.7248ZM100.243 20.7323L100.246 21.4062L101.243 21.4003L100.76 20.4062L100.243 20.7323L100.243 20.7323ZM165.655 0.871251L165.655 0.351506L164.655 1.35151L165.655 0.871251L165.655 0.871251ZM176.326 1.35151L177.326 0.877087L177.004 0.351506L176.326 0.351506L176.326 1.35151L176.326 1.35151ZM191.265 29.3407L192.265 28.7312L192.234 28.5279L192.185 28.3407L191.265 29.3407L191.265 29.3407ZM195.136 31.4314L195.136 31.9843L196.136 30.9843L195.136 31.4314L195.136 31.4314ZM181.519 31.3984L180.519 30.9098L181.519 31.9105L181.519 31.3984L181.519 31.3984ZM182.845 30.7481L183.13 31.6836L183.845 31.4531L183.796 30.6836L182.845 30.7481L182.845 30.7481ZM182.709 29.382L183.709 29.2581L183.693 28.7845L183.558 28.382L182.709 29.382L182.709 29.382ZM178.979 23.1604L179.972 22.6323L179.626 22.1604L178.972 22.1635L178.979 23.1604L178.979 23.1604ZM166.813 23.2332L166.806 22.2332L166.11 22.2367L165.813 22.8072L166.813 23.2332L166.813 23.2332ZM164.054 29.2951L163.138 28.2951L163.073 28.6186L163.054 28.9724L164.054 29.2951L164.054 29.2951ZM163.857 30.4841L162.857 31.2321L162.931 31.3703L163.031 31.4841L163.857 30.4841L163.857 30.4841ZM164.326 31.5189L164.296 32.1006L165.296 31.1006L164.326 31.5189L164.326 31.5189ZM158.909 31.3281L157.909 30.839L158.83 31.84L158.909 31.3281L158.909 31.3281ZM160.778 30.4841L161.107 31.4841L161.57 31.3479L161.778 30.9331L160.778 30.4841L160.778 30.4841ZM171.03 8.88481L171.934 9.88481L172.03 9.41021L172.03 8.88481L171.03 8.88481L171.03 8.88481ZM171.03 8.09873L172.03 8.09873L172.03 7.54321L171.83 7.09873L171.03 8.09873L171.03 8.09873ZM166.698 2.15484L167.698 1.50567L167.493 1.26828L167.176 1.15484L166.698 2.15484L166.698 2.15484ZM167.225 20.8485L166.695 20.5322L166.228 21.5322L167.228 21.5261L167.225 20.8485L167.225 20.8485ZM172.403 10.7861L172.901 10.5382L172.391 9.7093L171.901 10.5469L172.403 10.7861L172.403 10.7861ZM177.845 20.7921L177.848 21.4659L178.845 21.4598L178.363 20.4659L177.845 20.7921L177.845 20.7921ZM121.987 1L121.993 0.00505155L121.075 0L120.993 0.912406L121.987 1L121.987 1ZM141.946 1.11537L142.946 0.141703L142.467 0.115994L141.971 0.115373L141.946 1.11537L141.946 1.11537ZM154.017 14.0622L155.015 14.1141L155.017 13.6095L154.999 13.1141L154.017 14.0622L154.017 14.0622ZM153.962 18.6794L154.944 19.6794L154.962 19.21L154.962 18.7322L153.962 18.6794L153.962 18.6794ZM141.892 31.428L141.905 32.428L142.411 32.4276L142.892 32.3819L141.892 31.428L141.892 31.428ZM121.878 31.4855L120.882 31.4898L120.886 32.4855L121.882 32.4828L121.878 31.4855L121.878 31.4855ZM121.877 31.3081L121.803 30.3126L120.877 30.3826L120.881 31.3126L121.877 31.3081L121.877 31.3081ZM124.765 28.3823L125.765 29.3823L125.765 28.3823L124.765 28.3823L124.765 28.3823ZM124.765 4.43439L125.765 4.43439L125.765 3.43439L124.765 4.43439L124.765 4.43439ZM121.891 1.17042L120.975 1.08947L120.891 2.05913L121.862 2.08947L121.891 1.17042L121.891 1.17042ZM133.612 3.1363L133.59 2.1363L132.612 2.15657L132.612 3.13557L133.612 3.1363L133.612 3.1363ZM133.591 29.6263L132.593 29.6255L132.591 30.622L133.587 30.6255L133.591 29.6263L133.591 29.6263ZM140.228 29.7476L139.314 28.7476L139.271 28.7575L139.228 28.7682L140.228 29.7476L140.228 29.7476ZM143.973 23.8353L144.971 24.77L144.973 24.27L144.973 23.77L143.973 23.8353L143.973 23.8353ZM144.389 7.8997L143.389 7.84247L143.389 8.84247L144.389 7.8997L144.389 7.8997ZM140.362 3.02671L139.362 4.00393L139.452 4.01651L139.547 4.0267L140.362 3.02671L140.362 3.02671ZM0.752506 1.35397L3.68467 4.6607L4.45098 3.98118L1.51881 0.674461L0.752506 1.35397L0.752506 1.35397ZM3.55573 4.32095L3.55573 28.5231L4.57992 28.5231L4.57992 4.32095L3.55573 4.32095L3.55573 4.32095ZM3.6456 28.2334L1.4724 31.4001L2.31686 31.9796L4.49006 28.8129L3.6456 28.2334L3.6456 28.2334ZM1.89385 32.2019L15.2033 32.2224L15.2049 31.1982L1.89542 31.1777L1.89385 32.2019L1.89385 32.2019ZM15.5995 31.3848L13.2005 28.4709L12.4098 29.1218L14.8088 32.0357L15.5995 31.3848L15.5995 31.3848ZM13.3171 28.7817L13.068 20.0657L12.0442 20.095L12.2933 28.811L13.3171 28.7817L13.3171 28.7817ZM12.5533 20.5924L25.3865 20.662L25.392 19.6379L12.5589 19.5682L12.5533 20.5924L12.5533 20.5924ZM25.551 20.6358C29.5317 19.3106 33.7788 16.4234 33.9817 10.5297L32.9581 10.4945C32.7767 15.7645 29.0265 18.3993 25.2275 19.6641L25.551 20.6358L25.551 20.6358ZM33.9819 10.5063C33.918 4.87292 30.4591 1.17657 26.3624 0.439078L26.181 1.44706C29.7529 2.09009 32.899 5.33263 32.9578 10.5179L33.9819 10.5063L33.9819 10.5063ZM26.2702 0.430978L1.13421 0.502123L1.13711 1.5263L26.2731 1.45516L26.2702 0.430978L26.2702 0.430978ZM11.5685 2.562L11.5685 18.1102L12.5926 18.1102L12.5926 2.562L11.5685 2.562L11.5685 2.562ZM12.0769 18.6223L21.9231 18.6934L21.9305 17.6693L12.0843 17.5981L12.0769 18.6223L12.0769 18.6223ZM22.2482 18.58C23.3568 17.6861 24.4127 16.8371 25.1621 15.638C25.9231 14.4203 26.3447 12.8863 26.3096 10.6456L25.2856 10.6616C25.3184 12.7585 24.9248 14.0851 24.2935 15.0952C23.6506 16.1239 22.7372 16.87 21.6053 17.7827L22.2482 18.58L22.2482 18.58ZM26.3097 10.649C26.2772 7.07014 25.5209 3.69572 21.9315 2.09505L21.5144 3.03044C24.5169 4.36943 25.2538 7.16343 25.2855 10.6583L26.3097 10.649L26.3097 10.649ZM21.723 2.05065L12.0806 2.04991L12.0805 3.07409L21.7229 3.07484L21.723 2.05065L21.723 2.05065ZM39.2461 1.17757L42.1783 4.48505L42.9447 3.80564L40.0125 0.498156L39.2461 1.17757L39.2461 1.17757ZM42.0494 4.14536L42.0494 28.3475L43.0736 28.3475L43.0736 4.14536L42.0494 4.14536L42.0494 4.14536ZM42.1392 28.0579L39.966 31.2261L40.8106 31.8054L42.9838 28.6372L42.1392 28.0579L42.1392 28.0579ZM40.3876 32.0278L53.6963 32.0468L53.6977 31.0226L40.389 31.0037L40.3876 32.0278L40.3876 32.0278ZM54.0924 31.2092L51.6935 28.2953L50.9027 28.9462L53.3017 31.8602L54.0924 31.2092L54.0924 31.2092ZM51.81 28.6061L51.5609 19.8901L50.5371 19.9194L50.7862 28.6354L51.81 28.6061L51.81 28.6061ZM51.049 20.4168L52.049 20.4168L52.049 19.3926L51.049 19.3926L51.049 20.4168L51.049 20.4168ZM50.77 20.2943L64.5199 32.0227L65.1846 31.2435L51.4347 19.5151L50.77 20.2943L50.77 20.2943ZM64.8564 32.1451L76.2673 32.052L76.259 31.0279L64.8481 31.121L64.8564 32.1451L64.8564 32.1451ZM76.5982 31.1527L66.1836 22.1445L65.5136 22.9191L75.9281 31.9273L76.5982 31.1527L76.5982 31.1527ZM65.8486 22.0197L57.1544 22.0197L57.1544 23.0439L65.8486 23.0439L65.8486 22.0197L65.8486 22.0197ZM57.4865 22.142L54.4221 19.5316L53.7579 20.3112L56.8223 22.9216L57.4865 22.142L57.4865 22.142ZM54.0872 20.4335L63.8794 20.4865L63.8849 19.4623L54.0928 19.4093L54.0872 20.4335L54.0872 20.4335ZM64.0439 20.4602C68.0246 19.135 72.271 16.2478 72.4746 10.3542L71.451 10.3188C71.2689 15.5889 67.5194 18.2238 63.7204 19.4885L64.0439 20.4602L64.0439 20.4602ZM72.4748 10.3307C72.4117 4.69814 68.9527 1.00092 64.8552 0.264222L64.674 1.27224C68.2465 1.91456 71.3926 5.15776 71.4507 10.3422L72.4748 10.3307L72.4748 10.3307ZM64.7632 0.256143L39.6279 0.325774L39.6308 1.34996L64.766 1.28032L64.7632 0.256143L64.7632 0.256143ZM50.0614 2.38564L50.0614 17.9339L51.0855 17.9339L51.0855 2.38564L50.0614 2.38564L50.0614 2.38564ZM50.5698 18.4459L60.416 18.5171L60.4234 17.4929L50.5772 17.4218L50.5698 18.4459L50.5698 18.4459ZM60.7411 18.4037C61.85 17.5097 62.9059 16.6608 63.6553 15.4615C64.4162 14.2437 64.8376 12.7095 64.8025 10.4685L63.7785 10.4845C63.8113 12.5818 63.4179 13.9086 62.7867 14.9188C62.1439 15.9475 61.2304 16.6937 60.0983 17.6063L60.7411 18.4037L60.7411 18.4037ZM64.8026 10.4718C64.7701 6.89383 64.0138 3.51863 60.4244 1.91795L60.0073 2.85334C63.0098 4.19232 63.7467 6.98706 63.7784 10.4812L64.8026 10.4718L64.8026 10.4718ZM60.2159 1.87355L50.5735 1.87355L50.5735 2.89773L60.2159 2.89773L60.2159 1.87355L60.2159 1.87355ZM87.2489 1.31514L98.7248 1.31514L98.7248 0.290957L87.2489 0.290957L87.2489 1.31514L87.2489 1.31514ZM98.274 1.04599L113.213 28.7661L114.114 28.2802L99.1756 0.560112L98.274 1.04599L98.274 1.04599ZM113.173 28.6712C113.358 29.2813 113.641 29.7417 113.998 30.0969C114.352 30.4485 114.756 30.6764 115.151 30.85C115.529 31.0159 115.958 31.1552 116.295 31.2823C116.655 31.418 116.967 31.5583 117.233 31.7521L117.836 30.9237C117.457 30.6482 117.043 30.4696 116.657 30.324C116.248 30.1697 115.912 30.0654 115.563 29.9124C115.233 29.7672 114.952 29.6012 114.721 29.3709C114.493 29.1443 114.293 28.8352 114.154 28.3751L113.173 28.6712L113.173 28.6712ZM117.534 30.8258L103.071 30.8258L103.071 31.85L117.534 31.85L117.534 30.8258L117.534 30.8258ZM103.224 31.8266L105.397 31.147L105.091 30.1695L102.918 30.8491L103.224 31.8266L103.224 31.8266ZM105.755 30.6246L105.619 28.5606L104.597 28.6279L104.733 30.6919L105.755 30.6246L105.755 30.6246ZM105.542 28.323L101.808 22.3423L100.938 22.8848L104.674 28.8655L105.542 28.323L105.542 28.323ZM101.37 22.1015L88.672 22.1726L88.6777 23.1968L101.376 23.1256L101.37 22.1015L101.37 22.1015ZM88.2115 22.4666L85.4956 28.2361L86.4222 28.6724L89.1381 22.9028L88.2115 22.4666L88.2115 22.4666ZM85.4516 28.3842C85.4396 28.4715 85.4047 28.5701 85.3405 28.7086C85.2878 28.822 85.1847 29.0207 85.1174 29.1913C85.0423 29.3817 84.976 29.6145 84.9854 29.8822C84.9949 30.1558 85.082 30.4276 85.2556 30.6993L86.1187 30.1479C86.0319 30.012 86.0113 29.9159 86.0089 29.8463C86.0063 29.771 86.0235 29.6854 86.0701 29.5673C86.1245 29.4295 86.1813 29.3297 86.2695 29.1398C86.346 28.9748 86.4329 28.7651 86.4662 28.5243L85.4516 28.3842L85.4516 28.3842ZM85.3313 30.7919L86.3503 31.7765L87.062 31.04L86.043 30.0553L85.3313 30.7919L85.3313 30.7919ZM86.7177 30.8963L80.4706 30.7555L80.4475 31.7795L86.6946 31.9202L86.7177 30.8963L86.7177 30.8963ZM80.611 31.7565L83.3276 30.9126L83.0238 29.9346L80.3071 30.7785L80.611 31.7565L80.611 31.7565ZM83.6384 30.6432L93.8907 9.04385L92.9655 8.60468L82.7131 30.204L83.6384 30.6432L83.6384 30.6432ZM93.9402 8.82426L93.9402 7.34612L92.916 7.34612L92.916 8.82426L93.9402 8.82426L93.9402 8.82426ZM93.8378 7.03897L89.5061 1.26032L88.6866 1.87463L93.0183 7.65328L93.8378 7.03897L93.8378 7.03897ZM89.2921 1.0943L87.4447 0.329866L87.0531 1.27623L88.9005 2.04066L89.2921 1.0943L89.2921 1.0943ZM89.9304 20.9492L95.2045 10.9639L94.2989 10.4856L89.0248 20.4709L89.9304 20.9492L89.9304 20.9492ZM94.3036 10.9726L99.7947 20.9019L100.691 20.4062L95.1999 10.4769L94.3036 10.9726L94.3036 10.9726ZM100.24 20.1419L89.475 20.198L89.4803 21.2221L100.245 21.1661L100.24 20.1419L100.24 20.1419ZM164.851 1.37569L176.326 1.37569L176.326 0.351506L164.851 0.351506L164.851 1.37569L164.851 1.37569ZM175.875 1.10654L190.814 28.8266L191.716 28.3407L176.777 0.620652L175.875 1.10654L175.875 1.10654ZM190.775 28.7317C190.959 29.3418 191.243 29.8023 191.6 30.1575C191.953 30.509 192.358 30.7369 192.753 30.9106C193.13 31.0764 193.56 31.2158 193.897 31.3428C194.257 31.4786 194.568 31.6188 194.835 31.8126L195.437 30.9843C195.058 30.7088 194.644 30.5301 194.258 30.3846C193.849 30.2303 193.513 30.1259 193.165 29.9729C192.835 29.8278 192.554 29.6617 192.322 29.4315C192.095 29.2049 191.894 28.8957 191.755 28.4356L190.775 28.7317L190.775 28.7317ZM195.136 30.8863L180.672 30.8863L180.672 31.9105L195.136 31.9105L195.136 30.8863L195.136 30.8863ZM180.825 31.8871L182.998 31.2059L182.692 30.2286L180.519 30.9098L180.825 31.8871L180.825 31.8871ZM183.356 30.6836L183.22 28.6197L182.198 28.6869L182.334 30.7509L183.356 30.6836L183.356 30.6836ZM183.143 28.382L179.409 22.4028L178.54 22.9454L182.275 28.9246L183.143 28.382L183.143 28.382ZM178.972 22.162L166.274 22.2332L166.28 23.2573L178.978 23.1862L178.972 22.162L178.972 22.162ZM165.813 22.5271L163.097 28.2951L164.024 28.7314L166.74 22.9634L165.813 22.5271L165.813 22.5271ZM163.054 28.4429C163.041 28.5308 163.006 28.63 162.942 28.7686C162.889 28.8824 162.786 29.0811 162.719 29.2518C162.644 29.4422 162.578 29.6749 162.587 29.9426C162.596 30.2161 162.683 30.4879 162.857 30.7596L163.72 30.2087C163.633 30.0729 163.613 29.9767 163.61 29.907C163.608 29.8315 163.625 29.7458 163.672 29.6276C163.726 29.4896 163.783 29.3896 163.871 29.1995C163.948 29.0344 164.035 28.8246 164.068 28.5837L163.054 28.4429L163.054 28.4429ZM162.932 30.8524L163.951 31.8371L164.663 31.1006L163.644 30.1159L162.932 30.8524L162.932 30.8524ZM164.319 30.9569L158.073 30.8161L158.049 31.84L164.296 31.9808L164.319 30.9569L164.319 30.9569ZM158.213 31.8171L160.93 30.9732L160.626 29.9951L157.909 30.839L158.213 31.8171L158.213 31.8171ZM161.24 30.7037L171.493 9.1044L170.567 8.66523L160.315 30.2646L161.24 30.7037L161.24 30.7037ZM171.542 8.88481L171.542 7.40592L170.518 7.40592L170.518 8.88481L171.542 8.88481L171.542 8.88481ZM171.44 7.09873L167.108 1.32085L166.288 1.9352L170.62 7.7131L171.44 7.09873L171.44 7.09873ZM166.894 1.15484L165.047 0.390415L164.655 1.33678L166.502 2.10121L166.894 1.15484L166.894 1.15484ZM167.532 21.0105L172.806 11.0252L171.901 10.5469L166.627 20.5322L167.532 21.0105L167.532 21.0105ZM171.906 11.0339L177.397 20.9617L178.294 20.4659L172.802 10.5382L171.906 11.0339L171.906 11.0339ZM177.843 20.2017L167.077 20.2593L167.082 21.2834L177.848 21.2259L177.843 20.2017L177.843 20.2017ZM121.5 1.02677L141.944 1.13954L141.949 0.115373L121.506 0.00259995L121.5 1.02677L121.5 1.02677ZM141.83 1.12606C145.048 1.8797 147.647 3.23106 149.598 5.22277C151.547 7.2133 152.879 9.87464 153.513 13.3005L154.521 13.1141C153.856 9.52376 152.445 6.66607 150.329 4.50616C148.215 2.34742 145.428 0.916935 142.063 0.128856L141.83 1.12606L141.83 1.12606ZM153.505 13.2021L153.45 18.6743L154.474 18.6845L154.529 13.2124L153.505 13.2021L153.505 13.2021ZM153.459 18.5828C152.875 21.6248 151.632 24.1748 149.705 26.2289C147.777 28.285 145.141 29.8685 141.739 30.9395L142.046 31.9164C145.58 30.8039 148.38 29.1389 150.452 26.9295C152.526 24.7182 153.849 21.9856 154.465 18.7759L153.459 18.5828L153.459 18.5828ZM141.891 30.9159L121.393 30.9734L121.396 31.9976L141.894 31.94L141.891 30.9159L141.891 30.9159ZM121.906 31.8142L121.903 30.821L120.879 30.8277L120.882 31.821L121.906 31.8142L121.906 31.8142ZM121.43 31.3339C122.213 31.2747 122.84 31.2065 123.336 31.1042C123.827 31.0027 124.24 30.8582 124.557 30.6135C125.235 30.0897 125.273 29.2668 125.277 28.3846L124.253 28.3801C124.248 29.3476 124.158 29.6275 123.931 29.8028C123.795 29.9078 123.56 30.0119 123.128 30.1012C122.701 30.1895 122.128 30.254 121.353 30.3126L121.43 31.3339L121.43 31.3339ZM125.277 28.3823L125.277 3.44753L124.253 3.44753L124.253 28.3823L125.277 28.3823L125.277 28.3823ZM125.277 3.43439C125.259 2.74942 125.189 1.98326 124.56 1.42923C123.965 0.904644 122.979 0.669966 121.464 0.622711L121.432 1.64639C122.926 1.69299 123.58 1.93097 123.883 2.1975C124.152 2.43458 124.235 2.77797 124.253 3.46064L125.277 3.43439L125.277 3.43439ZM121.958 1.4696L122.013 0.59659L120.993 0.469602L120.938 1.34261L121.958 1.4696L121.958 1.4696ZM132.612 2.6479L132.592 29.6255L133.616 29.6262L133.636 2.64865L132.612 2.6479L132.612 2.6479ZM133.102 30.138C134.403 30.1423 135.725 30.2078 136.807 30.1879C137.899 30.1679 138.919 30.0646 139.693 29.6695L139.228 28.7572C138.681 29.0365 137.871 29.144 136.788 29.1639C135.696 29.184 134.501 29.1185 133.106 29.1138L133.102 30.138L133.102 30.138ZM139.673 29.6792C142.793 28.2543 144.342 26.0124 144.484 23.8052L143.462 23.7394C143.35 25.4785 142.117 27.4372 139.248 28.7476L139.673 29.6792L139.673 29.6792ZM144.485 23.77L144.413 7.84032L143.389 7.84492L143.461 23.7746L144.485 23.77L144.485 23.77ZM144.413 7.84276C144.414 6.37353 143.617 5.16045 142.668 4.27938C141.718 3.39809 140.558 2.79173 139.684 2.53532L139.395 3.51809C140.118 3.73018 141.139 4.25759 141.971 5.03006C142.804 5.80273 143.389 6.76336 143.389 7.84247L144.413 7.84276L144.413 7.84276ZM139.717 2.54653C139.066 2.30522 138.142 2.19372 137.05 2.14401C135.945 2.09368 134.611 2.10526 133.113 2.1363L133.134 3.16026C134.632 3.12924 135.935 3.11848 137.004 3.16713C138.085 3.21636 138.871 3.32511 139.362 3.5069L139.717 2.54653L139.717 2.54653Z" fill="#FFFFFF" transform="translate(-1.136 -0.515)" />
                </g>
            </g>
        </svg>