 <svg width="166.482" height="33.165" viewBox="0 0 166.482 33.165" fill="none" xmlns="http://www.w3.org/2000/svg">
            <g>
                <path d="M146.394 8.92219L141.684 8.88659C141.453 6.23976 139.936 3.67765 136.598 3.20567C129.448 2.56211 127.433 10.415 127.615 16.1572C127.798 21.6922 128.683 30.2015 136.064 30.2015C139.16 30.2015 142.133 27.0207 142.036 24.3383L146.394 24.3027C146.078 29.8377 139.73 33.0419 136.707 33.1516C126.378 33.5039 122.055 26.6206 121.837 16.7993C121.643 7.90346 125.285 0 135.493 0C144.233 0.121734 145.92 5.29294 146.394 8.92219L146.394 8.92219ZM72.9294 28.8901L76.0497 26.2803C77.6756 28.9635 79.0111 30.1886 82.2403 30.1886C85.5172 30.1886 88.2736 28.1982 88.2736 24.6786C88.2736 22.9423 87.5688 21.522 86.1735 20.4542C85.5414 19.9559 83.9396 19.0945 81.4145 17.8928C77.6393 16.0846 73.9617 13.7289 73.9617 8.99551C73.9617 3.02271 79.0353 0.388695 84.3881 0.193636C87.5567 0.0726133 91.49 1.82174 93.0796 3.78728L89.9117 6.22695C89.3467 5.17255 88.5067 4.29083 87.4809 3.6754C86.4551 3.05998 85.2818 2.73381 84.0855 2.73154C80.0427 2.73154 76.8384 7.41724 80.1886 10.6464C81.0379 11.4715 82.7749 12.4909 85.421 13.7047C89.6447 15.6838 93.2498 18.0501 93.2498 23.2825C93.2498 25.0908 92.7764 26.7779 91.8416 28.3199C89.9608 31.4273 86.8164 32.9814 82.4225 32.9814C77.3724 32.9814 76.3778 31.8281 72.9294 28.8901L72.9294 28.8901ZM62.9031 17.262C66.7872 16.4968 69.7615 13.5232 69.7615 9.27457C69.7615 3.70186 65.1 0.654944 59.8804 0.654944L50.3395 0.654944C50.4727 1.14117 50.546 1.65089 50.546 2.18481L50.546 30.9774C50.546 31.5968 50.4727 32.1186 50.3395 32.5073L56.0205 32.5073C55.8815 32.0093 55.8121 31.4944 55.814 30.9774L55.814 17.7476L57.6343 17.9419L67.1517 32.5073L72.8689 32.5073L62.9031 17.262L62.9031 17.262ZM0 0.655656L5.91229 0.655656L5.91229 0.947533C5.91229 1.21449 5.99701 1.56617 6.14295 2.01538L14.4935 27.1545L23.064 1.90574C23.1971 1.48145 23.2704 1.06856 23.2704 0.655656L26.1472 0.655656C25.856 1.16537 25.6375 1.61529 25.5036 2.01538L15.7194 31.2095C15.6225 31.4886 15.5378 31.9257 15.4652 32.5087L10.6094 32.5087C10.536 32.0674 10.4265 31.6329 10.2819 31.2095L0.692675 2.24603C0.471165 1.71187 0.240237 1.18166 0 0.655656L0 0.655656ZM28.4779 0.655656L44.7668 0.655656L44.7668 3.25336C44.2937 3.09442 43.798 3.01246 43.2989 3.01061L33.9282 3.01061L33.9282 15.1491L43.044 15.1491C43.6997 15.1491 44.2827 15.0772 44.7675 14.9548L44.7675 17.5411C44.3546 17.4443 43.7844 17.3952 43.0932 17.3952L33.9282 17.3952L33.9282 29.9466L43.0198 29.9466C43.5175 29.9466 44.1126 29.874 44.7675 29.7159L44.7675 32.508L28.5029 32.508C28.6218 32.0151 28.6827 31.5101 28.6844 31.003L28.6844 2.19691C28.6844 1.56617 28.6111 1.04435 28.4779 0.655656L28.4779 0.655656ZM120.89 31.1853L110.282 1.71211C110.164 1.37134 110.094 1.01572 110.075 0.655656L105.486 0.655656C105.486 1.03225 105.425 1.43233 105.279 1.83313L94.9982 31.1853C94.8636 31.6089 94.6458 32.0467 94.3546 32.508L97.3161 32.508C97.3047 32.0225 97.3652 31.5733 97.4991 31.1853L100.545 22.5294L112.259 22.5294L115.27 31.186C115.428 31.658 115.5 32.0951 115.5 32.508L121.643 32.508C121.29 32.0104 121.036 31.5612 120.89 31.1853L120.89 31.1853ZM150.168 0.655656L166.471 0.655656L166.471 3.25336C165.997 3.09436 165.501 3.0124 165.002 3.01061L155.631 3.01061L155.631 15.1491L164.747 15.1491C165.402 15.1491 165.985 15.0772 166.47 14.9548L166.47 17.5411C166.057 17.4443 165.488 17.3952 164.783 17.3952L155.631 17.3952L155.631 29.9466L164.722 29.9466C165.221 29.9466 165.815 29.874 166.47 29.7159L166.47 32.508L150.192 32.508C150.322 32.017 150.388 31.511 150.387 31.003L150.387 2.19691C150.387 1.56617 150.314 1.04435 150.168 0.655656L150.168 0.655656ZM61.92 14.8345C60.8884 15.562 59.6497 15.9258 58.2295 15.9258L55.8019 15.9258L55.8019 2.97572L57.9746 2.97572C59.8327 2.97572 61.2764 3.43632 62.3086 4.35822C63.7168 5.63394 64.4329 7.35744 64.4329 9.51804C64.4329 11.8488 63.595 13.6214 61.92 14.8352L61.92 14.8345L61.92 14.8345ZM101.347 20.1865L106.299 5.80266L111.386 20.1865L101.347 20.1865L101.347 20.1865Z" fill="#FFFFFF" fill-rule="evenodd" transform="translate(0.011 0)" />
            </g>
        </svg>