 <svg width="91" height="38" viewBox="0 0 91 38" fill="none" xmlns="http://www.w3.org/2000/svg">
            <g>
                <path d="M86.3324 36.8604L72.8501 0.0243821L72.841 0L72.5749 0L69.7985 7.56966L64.7441 21.3504L64.7323 21.3395C62.9806 19.8056 60.5091 18.8468 57.3965 18.4897L56.4472 18.3924L57.389 18.2726C62.5219 17.3573 65.9723 14.1403 65.9723 10.2644C65.9723 4.94948 60.9348 1.2397 53.7189 1.2397L38.7052 1.2397L38.7052 1.5088L43.0678 1.5088L43.0678 28.9721L32.4727 0.0242918L32.4632 0L32.1971 0L29.4207 7.56966L18.7123 36.7655L18.6464 36.7731C18.4634 36.7955 18.2824 36.8133 18.1034 36.8268C17.834 36.8477 17.5662 36.8603 17.2976 36.8603L6.47765 36.8603L27.0448 1.50871L27.1977 1.24304L2.04322 1.24304L2.04322 12.1789L2.31013 12.1789C2.35745 6.85219 5.48348 1.50871 12.3902 1.50871L20.7226 1.50871L0 37.1251L27.9173 37.1251L27.9173 26.6479L27.6504 26.6479C27.614 31.2906 24.9619 35.7003 19.1947 36.696L19.0114 36.7271L23.4036 24.7469L35.7075 24.7469L40.141 36.8604L35.7675 36.8604L35.7675 37.1252L52.9333 37.1252L52.9333 36.8604L48.5411 36.8604L48.5411 18.5878L53.6091 18.5878C58.7665 18.5878 61.7245 20.8743 61.7245 24.859L61.7245 28.1003C61.7245 28.4575 61.749 28.9796 61.776 29.4163L61.776 29.4322L59.052 36.8587L55.4934 36.8587L55.4934 37.1235L62.8596 37.1235L62.8596 36.8587L59.3393 36.8587L61.8199 30.0961C61.825 30.1615 61.8276 30.2009 61.8276 30.2009L61.896 30.8103L61.9619 31.2134C62.3758 33.707 63.3369 35.5401 64.8177 36.6616L65.0305 36.815C66.1555 37.5912 67.5535 37.9843 69.1879 37.9843C71.3527 37.9843 72.7962 37.4487 73.988 36.1881L73.8318 36.0422C72.7337 37.048 71.8122 37.4555 70.6576 37.4555C68.6903 37.4555 67.6608 35.0875 67.6608 32.7523L67.6608 28.2109C67.6712 27.0841 67.4934 25.9634 67.1345 24.8942L67.0856 24.7535L67.0856 24.7484L76.0851 24.7484L80.5186 36.862L76.1452 36.862L76.1452 37.1269L91 37.1269L91 36.862L86.3324 36.8604L86.3324 36.8604ZM48.5438 18.322L48.5438 1.50871L52.4122 1.50871C57.5798 1.50871 60.308 4.5572 60.308 10.3215C60.308 16.452 58.742 18.322 53.6091 18.322L48.5438 18.322L48.5438 18.322ZM23.5015 24.4819L29.5627 7.95697L35.6104 24.4819L23.5015 24.4819L23.5015 24.4819ZM66.9807 24.4819L66.9545 24.4165C66.5546 23.4499 65.9723 22.568 65.239 21.8181L64.9856 21.5666L64.9586 21.5415L69.937 7.95697L75.9846 24.4819L66.9807 24.4819L66.9807 24.4819Z" fill="#FFFFFF" fill-rule="evenodd" transform="translate(0 0.008)" />
            </g>
        </svg>